<mxfile host="65bd71144e">
    <diagram id="YF88URLRyTjmifpTVLvw" name="Página-1">
        <mxGraphModel dx="406" dy="288" grid="1" gridSize="10" guides="1" tooltips="1" connect="1" arrows="1" fold="1" page="1" pageScale="1" pageWidth="827" pageHeight="1169" math="0" shadow="0">
            <root>
                <mxCell id="0"/>
                <mxCell id="1" parent="0"/>
                <mxCell id="3" value=" Maquiagens" style="shape=table;startSize=30;container=1;collapsible=0;childLayout=tableLayout;fillColor=light-dark(#cc006d, #ff90f3);strokeColor=#A50040;fontColor=#000000;sketch=1;curveFitting=1;jiggle=2;rounded=0;" parent="1" vertex="1">
                    <mxGeometry width="200" height="270" as="geometry"/>
                </mxCell>
                <mxCell id="4" value="" style="shape=tableRow;horizontal=0;startSize=0;swimlaneHead=0;swimlaneBody=0;strokeColor=inherit;top=0;left=0;bottom=0;right=0;collapsible=0;dropTarget=0;fillColor=none;points=[[0,0.5],[1,0.5]];portConstraint=eastwest;sketch=1;curveFitting=1;jiggle=2;rounded=0;" parent="3" vertex="1">
                    <mxGeometry y="30" width="200" height="40" as="geometry"/>
                </mxCell>
                <mxCell id="5" value="id&amp;nbsp;" style="shape=partialRectangle;html=1;whiteSpace=wrap;connectable=0;strokeColor=inherit;overflow=hidden;fillColor=none;top=0;left=0;bottom=0;right=0;pointerEvents=1;sketch=1;curveFitting=1;jiggle=2;rounded=0;" parent="4" vertex="1">
                    <mxGeometry width="80" height="40" as="geometry">
                        <mxRectangle width="80" height="40" as="alternateBounds"/>
                    </mxGeometry>
                </mxCell>
                <mxCell id="6" value="SERIAL PK" style="shape=partialRectangle;html=1;whiteSpace=wrap;connectable=0;strokeColor=inherit;overflow=hidden;fillColor=none;top=0;left=0;bottom=0;right=0;pointerEvents=1;sketch=1;curveFitting=1;jiggle=2;rounded=0;" parent="4" vertex="1">
                    <mxGeometry x="80" width="120" height="40" as="geometry">
                        <mxRectangle width="120" height="40" as="alternateBounds"/>
                    </mxGeometry>
                </mxCell>
                <mxCell id="7" value="" style="shape=tableRow;horizontal=0;startSize=0;swimlaneHead=0;swimlaneBody=0;strokeColor=inherit;top=0;left=0;bottom=0;right=0;collapsible=0;dropTarget=0;fillColor=none;points=[[0,0.5],[1,0.5]];portConstraint=eastwest;sketch=1;curveFitting=1;jiggle=2;rounded=0;" parent="3" vertex="1">
                    <mxGeometry y="70" width="200" height="40" as="geometry"/>
                </mxCell>
                <mxCell id="8" value="nome" style="shape=partialRectangle;html=1;whiteSpace=wrap;connectable=0;strokeColor=inherit;overflow=hidden;fillColor=none;top=0;left=0;bottom=0;right=0;pointerEvents=1;sketch=1;curveFitting=1;jiggle=2;rounded=0;" parent="7" vertex="1">
                    <mxGeometry width="80" height="40" as="geometry">
                        <mxRectangle width="80" height="40" as="alternateBounds"/>
                    </mxGeometry>
                </mxCell>
                <mxCell id="9" value="VARCHAR(100)" style="shape=partialRectangle;html=1;whiteSpace=wrap;connectable=0;strokeColor=inherit;overflow=hidden;fillColor=none;top=0;left=0;bottom=0;right=0;pointerEvents=1;sketch=1;curveFitting=1;jiggle=2;rounded=0;" parent="7" vertex="1">
                    <mxGeometry x="80" width="120" height="40" as="geometry">
                        <mxRectangle width="120" height="40" as="alternateBounds"/>
                    </mxGeometry>
                </mxCell>
                <mxCell id="10" value="" style="shape=tableRow;horizontal=0;startSize=0;swimlaneHead=0;swimlaneBody=0;strokeColor=inherit;top=0;left=0;bottom=0;right=0;collapsible=0;dropTarget=0;fillColor=none;points=[[0,0.5],[1,0.5]];portConstraint=eastwest;sketch=1;curveFitting=1;jiggle=2;rounded=0;" parent="3" vertex="1">
                    <mxGeometry y="110" width="200" height="40" as="geometry"/>
                </mxCell>
                <mxCell id="11" value="marca" style="shape=partialRectangle;html=1;whiteSpace=wrap;connectable=0;strokeColor=inherit;overflow=hidden;fillColor=none;top=0;left=0;bottom=0;right=0;pointerEvents=1;sketch=1;curveFitting=1;jiggle=2;rounded=0;" parent="10" vertex="1">
                    <mxGeometry width="80" height="40" as="geometry">
                        <mxRectangle width="80" height="40" as="alternateBounds"/>
                    </mxGeometry>
                </mxCell>
                <mxCell id="12" value="VARCHAR(100)" style="shape=partialRectangle;html=1;whiteSpace=wrap;connectable=0;strokeColor=inherit;overflow=hidden;fillColor=none;top=0;left=0;bottom=0;right=0;pointerEvents=1;sketch=1;curveFitting=1;jiggle=2;rounded=0;" parent="10" vertex="1">
                    <mxGeometry x="80" width="120" height="40" as="geometry">
                        <mxRectangle width="120" height="40" as="alternateBounds"/>
                    </mxGeometry>
                </mxCell>
                <mxCell id="13" value="" style="shape=tableRow;horizontal=0;startSize=0;swimlaneHead=0;swimlaneBody=0;strokeColor=inherit;top=0;left=0;bottom=0;right=0;collapsible=0;dropTarget=0;fillColor=none;points=[[0,0.5],[1,0.5]];portConstraint=eastwest;sketch=1;curveFitting=1;jiggle=2;rounded=0;" parent="3" vertex="1">
                    <mxGeometry y="150" width="200" height="40" as="geometry"/>
                </mxCell>
                <mxCell id="14" value="preco" style="shape=partialRectangle;html=1;whiteSpace=wrap;connectable=0;strokeColor=inherit;overflow=hidden;fillColor=none;top=0;left=0;bottom=0;right=0;pointerEvents=1;sketch=1;curveFitting=1;jiggle=2;rounded=0;" parent="13" vertex="1">
                    <mxGeometry width="80" height="40" as="geometry">
                        <mxRectangle width="80" height="40" as="alternateBounds"/>
                    </mxGeometry>
                </mxCell>
                <mxCell id="15" value="DECIMAL(10,2)" style="shape=partialRectangle;html=1;whiteSpace=wrap;connectable=0;strokeColor=inherit;overflow=hidden;fillColor=none;top=0;left=0;bottom=0;right=0;pointerEvents=1;sketch=1;curveFitting=1;jiggle=2;rounded=0;" parent="13" vertex="1">
                    <mxGeometry x="80" width="120" height="40" as="geometry">
                        <mxRectangle width="120" height="40" as="alternateBounds"/>
                    </mxGeometry>
                </mxCell>
                <mxCell id="16" value="" style="shape=tableRow;horizontal=0;startSize=0;swimlaneHead=0;swimlaneBody=0;strokeColor=inherit;top=0;left=0;bottom=0;right=0;collapsible=0;dropTarget=0;fillColor=none;points=[[0,0.5],[1,0.5]];portConstraint=eastwest;sketch=1;curveFitting=1;jiggle=2;rounded=0;" parent="3" vertex="1">
                    <mxGeometry y="190" width="200" height="40" as="geometry"/>
                </mxCell>
                <mxCell id="17" value="categoria" style="shape=partialRectangle;html=1;whiteSpace=wrap;connectable=0;strokeColor=inherit;overflow=hidden;fillColor=none;top=0;left=0;bottom=0;right=0;pointerEvents=1;sketch=1;curveFitting=1;jiggle=2;rounded=0;" parent="16" vertex="1">
                    <mxGeometry width="80" height="40" as="geometry">
                        <mxRectangle width="80" height="40" as="alternateBounds"/>
                    </mxGeometry>
                </mxCell>
                <mxCell id="18" value="VARCHAR(30)" style="shape=partialRectangle;html=1;whiteSpace=wrap;connectable=0;strokeColor=inherit;overflow=hidden;fillColor=none;top=0;left=0;bottom=0;right=0;pointerEvents=1;sketch=1;curveFitting=1;jiggle=2;rounded=0;" parent="16" vertex="1">
                    <mxGeometry x="80" width="120" height="40" as="geometry">
                        <mxRectangle width="120" height="40" as="alternateBounds"/>
                    </mxGeometry>
                </mxCell>
                <mxCell id="19" value="" style="shape=tableRow;horizontal=0;startSize=0;swimlaneHead=0;swimlaneBody=0;strokeColor=inherit;top=0;left=0;bottom=0;right=0;collapsible=0;dropTarget=0;fillColor=none;points=[[0,0.5],[1,0.5]];portConstraint=eastwest;sketch=1;curveFitting=1;jiggle=2;rounded=0;" parent="3" vertex="1">
                    <mxGeometry y="230" width="200" height="40" as="geometry"/>
                </mxCell>
                <mxCell id="20" value="estoque" style="shape=partialRectangle;html=1;whiteSpace=wrap;connectable=0;strokeColor=inherit;overflow=hidden;fillColor=none;top=0;left=0;bottom=0;right=0;pointerEvents=1;sketch=1;curveFitting=1;jiggle=2;rounded=0;" parent="19" vertex="1">
                    <mxGeometry width="80" height="40" as="geometry">
                        <mxRectangle width="80" height="40" as="alternateBounds"/>
                    </mxGeometry>
                </mxCell>
                <mxCell id="21" value="INT" style="shape=partialRectangle;html=1;whiteSpace=wrap;connectable=0;strokeColor=inherit;overflow=hidden;fillColor=none;top=0;left=0;bottom=0;right=0;pointerEvents=1;sketch=1;curveFitting=1;jiggle=2;rounded=0;" parent="19" vertex="1">
                    <mxGeometry x="80" width="120" height="40" as="geometry">
                        <mxRectangle width="120" height="40" as="alternateBounds"/>
                    </mxGeometry>
                </mxCell>
            </root>
        </mxGraphModel>
    </diagram>
</mxfile>